{
	"asset":{
		"generator":"Khronos glTF Blender I/O v4.2.60",
		"version":"2.0"
	},
	"scene":0,
	"scenes":[
		{
			"name":"Scene",
			"nodes":[
				0,
				1,
				2,
				3,
				4,
				5,
				6,
				7,
				8,
				9,
				10,
				11,
				12,
				13,
				14,
				15,
				16
			]
		}
	],
	"nodes":[
		{
			"mesh":0,
			"name":"map.osm_buildings"
		},
		{
			"name":"map.osm_roads_tertiary",
			"translation":[
				0,
				0.30000001192092896,
				0
			]
		},
		{
			"name":"map.osm_roads_residential",
			"translation":[
				0,
				0.30000001192092896,
				0
			]
		},
		{
			"name":"map.osm_roads_secondary",
			"translation":[
				0,
				0.30000001192092896,
				0
			]
		},
		{
			"name":"map.osm_roads_service",
			"translation":[
				0,
				0.30000001192092896,
				0
			]
		},
		{
			"name":"map.osm_paths_footway",
			"translation":[
				0,
				0.30000001192092896,
				0
			]
		},
		{
			"mesh":1,
			"name":"map.osm_vegetation"
		},
		{
			"name":"map.osm_roads_pedestrian",
			"translation":[
				0,
				0.30000001192092896,
				0
			]
		},
		{
			"name":"map.osm_paths_steps",
			"translation":[
				0,
				0.30000001192092896,
				0
			]
		},
		{
			"mesh":2,
			"name":"map.osm_areas_pedestrian"
		},
		{
			"name":"profile_roads_secondary",
			"translation":[
				0,
				0,
				-11.940256118774414
			]
		},
		{
			"name":"profile_roads_tertiary",
			"translation":[
				0,
				0,
				-10.411212921142578
			]
		},
		{
			"name":"profile_roads_residential",
			"translation":[
				0,
				0,
				-6.9708662033081055
			]
		},
		{
			"name":"profile_paths_footway",
			"translation":[
				0,
				0,
				-4.489185333251953
			]
		},
		{
			"name":"profile_roads_service",
			"translation":[
				0,
				0,
				-3.567683458328247
			]
		},
		{
			"name":"profile_roads_pedestrian",
			"translation":[
				0,
				0,
				-2.479302167892456
			]
		},
		{
			"name":"profile_paths_steps",
			"translation":[
				0,
				0,
				-0.9678186178207397
			]
		}
	],
	"materials":[
		{
			"doubleSided":true,
			"name":"white",
			"pbrMetallicRoughness":{
				"baseColorFactor":[
					1,
					1,
					1,
					1
				],
				"metallicFactor":0,
				"roughnessFactor":0.4000000059604645
			}
		},
		{
			"doubleSided":true,
			"name":"grey",
			"pbrMetallicRoughness":{
				"baseColorFactor":[
					0.5019999742507935,
					0.5019999742507935,
					0.5019999742507935,
					1
				],
				"metallicFactor":0,
				"roughnessFactor":0.4000000059604645
			}
		},
		{
			"doubleSided":true,
			"name":"wall",
			"pbrMetallicRoughness":{
				"baseColorFactor":[
					1,
					0.5,
					0.20000000298023224,
					1
				],
				"metallicFactor":0,
				"roughnessFactor":0.4000000059604645
			}
		},
		{
			"doubleSided":true,
			"name":"roof",
			"pbrMetallicRoughness":{
				"baseColorFactor":[
					0.28999999165534973,
					0.25,
					0.20999999344348907,
					1
				],
				"metallicFactor":0,
				"roughnessFactor":0.4000000059604645
			}
		},
		{
			"doubleSided":true,
			"name":"red",
			"pbrMetallicRoughness":{
				"baseColorFactor":[
					1,
					0,
					0,
					1
				],
				"metallicFactor":0,
				"roughnessFactor":0.4000000059604645
			}
		},
		{
			"doubleSided":true,
			"name":"blue",
			"pbrMetallicRoughness":{
				"baseColorFactor":[
					0,
					0,
					1,
					1
				],
				"metallicFactor":0,
				"roughnessFactor":0.4000000059604645
			}
		},
		{
			"doubleSided":true,
			"name":"948e8b",
			"pbrMetallicRoughness":{
				"baseColorFactor":[
					0.5803921818733215,
					0.5568627715110779,
					0.545098066329956,
					1
				],
				"metallicFactor":0,
				"roughnessFactor":0.4000000059604645
			}
		},
		{
			"doubleSided":true,
			"name":"yellow",
			"pbrMetallicRoughness":{
				"baseColorFactor":[
					1,
					1,
					0,
					1
				],
				"metallicFactor":0,
				"roughnessFactor":0.4000000059604645
			}
		},
		{
			"doubleSided":true,
			"name":"brown",
			"pbrMetallicRoughness":{
				"baseColorFactor":[
					0.6470000147819519,
					0.16500000655651093,
					0.16500000655651093,
					1
				],
				"metallicFactor":0,
				"roughnessFactor":0.4000000059604645
			}
		},
		{
			"doubleSided":true,
			"name":"daa520",
			"pbrMetallicRoughness":{
				"baseColorFactor":[
					0.8549019694328308,
					0.6470588445663452,
					0.125490203499794,
					1
				],
				"metallicFactor":0,
				"roughnessFactor":0.4000000059604645
			}
		},
		{
			"doubleSided":true,
			"name":"vegetation",
			"pbrMetallicRoughness":{
				"baseColorFactor":[
					0.007000000216066837,
					0.5580000281333923,
					0.004999999888241291,
					1
				],
				"metallicFactor":0,
				"roughnessFactor":0.4000000059604645
			}
		},
		{
			"doubleSided":true,
			"name":"areas_pedestrian",
			"pbrMetallicRoughness":{
				"baseColorFactor":[
					0.08649999648332596,
					0.09084200114011765,
					0.0886560007929802,
					1
				],
				"metallicFactor":0,
				"roughnessFactor":0.4000000059604645
			}
		}
	],
	"meshes":[
		{
			"name":"map.osm_buildings",
			"primitives":[
				{
					"attributes":{
						"POSITION":0,
						"NORMAL":1
					},
					"indices":2,
					"material":0
				},
				{
					"attributes":{
						"POSITION":3,
						"NORMAL":4
					},
					"indices":5,
					"material":1
				},
				{
					"attributes":{
						"POSITION":6,
						"NORMAL":7
					},
					"indices":8,
					"material":2
				},
				{
					"attributes":{
						"POSITION":9,
						"NORMAL":10
					},
					"indices":11,
					"material":3
				},
				{
					"attributes":{
						"POSITION":12,
						"NORMAL":13
					},
					"indices":14,
					"material":4
				},
				{
					"attributes":{
						"POSITION":15,
						"NORMAL":16
					},
					"indices":17,
					"material":5
				},
				{
					"attributes":{
						"POSITION":18,
						"NORMAL":19
					},
					"indices":20,
					"material":6
				},
				{
					"attributes":{
						"POSITION":21,
						"NORMAL":22
					},
					"indices":23,
					"material":7
				},
				{
					"attributes":{
						"POSITION":24,
						"NORMAL":25
					},
					"indices":26,
					"material":8
				},
				{
					"attributes":{
						"POSITION":27,
						"NORMAL":28
					},
					"indices":29,
					"material":9
				}
			]
		},
		{
			"name":"map.osm_vegetation",
			"primitives":[
				{
					"attributes":{
						"POSITION":30,
						"NORMAL":31
					},
					"indices":32,
					"material":10
				}
			]
		},
		{
			"name":"map.osm_areas_pedestrian",
			"primitives":[
				{
					"attributes":{
						"POSITION":33,
						"NORMAL":34
					},
					"indices":35,
					"material":11
				}
			]
		}
	],
	"accessors":[
		{
			"bufferView":0,
			"componentType":5126,
			"count":2860,
			"max":[
				705.3681030273438,
				73.29335021972656,
				557.198486328125
			],
			"min":[
				-591.9879150390625,
				0,
				-613.4466552734375
			],
			"type":"VEC3"
		},
		{
			"bufferView":1,
			"componentType":5126,
			"count":2860,
			"type":"VEC3"
		},
		{
			"bufferView":2,
			"componentType":5123,
			"count":4290,
			"type":"SCALAR"
		},
		{
			"bufferView":3,
			"componentType":5126,
			"count":129,
			"max":[
				208.68081665039062,
				20.424755096435547,
				388.3832702636719
			],
			"min":[
				-86.37691497802734,
				0,
				-350.2101745605469
			],
			"type":"VEC3"
		},
		{
			"bufferView":4,
			"componentType":5126,
			"count":129,
			"type":"VEC3"
		},
		{
			"bufferView":5,
			"componentType":5123,
			"count":279,
			"type":"SCALAR"
		},
		{
			"bufferView":6,
			"componentType":5126,
			"count":13120,
			"max":[
				720.95458984375,
				64.91622161865234,
				828.9869995117188
			],
			"min":[
				-753.1847534179688,
				0,
				-853.9630737304688
			],
			"type":"VEC3"
		},
		{
			"bufferView":7,
			"componentType":5126,
			"count":13120,
			"type":"VEC3"
		},
		{
			"bufferView":8,
			"componentType":5123,
			"count":19686,
			"type":"SCALAR"
		},
		{
			"bufferView":9,
			"componentType":5126,
			"count":4122,
			"max":[
				720.95458984375,
				73.29335021972656,
				828.9869995117188
			],
			"min":[
				-861.4821166992188,
				4.161700248718262,
				-853.9630737304688
			],
			"type":"VEC3"
		},
		{
			"bufferView":10,
			"componentType":5126,
			"count":4122,
			"type":"VEC3"
		},
		{
			"bufferView":11,
			"componentType":5123,
			"count":9894,
			"type":"SCALAR"
		},
		{
			"bufferView":12,
			"componentType":5126,
			"count":144,
			"max":[
				-498.6982116699219,
				16.557924270629883,
				525.4271850585938
			],
			"min":[
				-861.4821166992188,
				0,
				-91.51985168457031
			],
			"type":"VEC3"
		},
		{
			"bufferView":13,
			"componentType":5126,
			"count":144,
			"type":"VEC3"
		},
		{
			"bufferView":14,
			"componentType":5123,
			"count":216,
			"type":"SCALAR"
		},
		{
			"bufferView":15,
			"componentType":5126,
			"count":32,
			"max":[
				363.07366943359375,
				19.388431549072266,
				18.85417366027832
			],
			"min":[
				-244.56649780273438,
				0,
				-746.5399169921875
			],
			"type":"VEC3"
		},
		{
			"bufferView":16,
			"componentType":5126,
			"count":32,
			"type":"VEC3"
		},
		{
			"bufferView":17,
			"componentType":5123,
			"count":48,
			"type":"SCALAR"
		},
		{
			"bufferView":18,
			"componentType":5126,
			"count":51,
			"max":[
				134.57720947265625,
				16.784568786621094,
				-205.08230590820312
			],
			"min":[
				59.24689865112305,
				4.713404655456543,
				-393.00079345703125
			],
			"type":"VEC3"
		},
		{
			"bufferView":19,
			"componentType":5126,
			"count":51,
			"type":"VEC3"
		},
		{
			"bufferView":20,
			"componentType":5123,
			"count":147,
			"type":"SCALAR"
		},
		{
			"bufferView":21,
			"componentType":5126,
			"count":232,
			"max":[
				712.1058349609375,
				29.32110595703125,
				250.46319580078125
			],
			"min":[
				413.24517822265625,
				0,
				-710.0127563476562
			],
			"type":"VEC3"
		},
		{
			"bufferView":22,
			"componentType":5126,
			"count":232,
			"type":"VEC3"
		},
		{
			"bufferView":23,
			"componentType":5123,
			"count":348,
			"type":"SCALAR"
		},
		{
			"bufferView":24,
			"componentType":5126,
			"count":16,
			"max":[
				186.58651733398438,
				10.960003852844238,
				-329.73834228515625
			],
			"min":[
				155.6820831298828,
				0,
				-338.9671325683594
			],
			"type":"VEC3"
		},
		{
			"bufferView":25,
			"componentType":5126,
			"count":16,
			"type":"VEC3"
		},
		{
			"bufferView":26,
			"componentType":5123,
			"count":24,
			"type":"SCALAR"
		},
		{
			"bufferView":27,
			"componentType":5126,
			"count":576,
			"max":[
				222.88967895507812,
				50.363037109375,
				-11.086923599243164
			],
			"min":[
				159.39891052246094,
				0,
				-60.8245964050293
			],
			"type":"VEC3"
		},
		{
			"bufferView":28,
			"componentType":5126,
			"count":576,
			"type":"VEC3"
		},
		{
			"bufferView":29,
			"componentType":5123,
			"count":864,
			"type":"SCALAR"
		},
		{
			"bufferView":30,
			"componentType":5126,
			"count":16,
			"max":[
				-339.2558898925781,
				0,
				437.193359375
			],
			"min":[
				-476.1105041503906,
				0,
				203.8769073486328
			],
			"type":"VEC3"
		},
		{
			"bufferView":31,
			"componentType":5126,
			"count":16,
			"type":"VEC3"
		},
		{
			"bufferView":32,
			"componentType":5123,
			"count":42,
			"type":"SCALAR"
		},
		{
			"bufferView":33,
			"componentType":5126,
			"count":12,
			"max":[
				-202.14134216308594,
				0,
				-597.8193359375
			],
			"min":[
				-240.41213989257812,
				0,
				-628.84375
			],
			"type":"VEC3"
		},
		{
			"bufferView":34,
			"componentType":5126,
			"count":12,
			"type":"VEC3"
		},
		{
			"bufferView":35,
			"componentType":5123,
			"count":30,
			"type":"SCALAR"
		}
	],
	"bufferViews":[
		{
			"buffer":0,
			"byteLength":34320,
			"byteOffset":0,
			"target":34962
		},
		{
			"buffer":0,
			"byteLength":34320,
			"byteOffset":34320,
			"target":34962
		},
		{
			"buffer":0,
			"byteLength":8580,
			"byteOffset":68640,
			"target":34963
		},
		{
			"buffer":0,
			"byteLength":1548,
			"byteOffset":77220,
			"target":34962
		},
		{
			"buffer":0,
			"byteLength":1548,
			"byteOffset":78768,
			"target":34962
		},
		{
			"buffer":0,
			"byteLength":558,
			"byteOffset":80316,
			"target":34963
		},
		{
			"buffer":0,
			"byteLength":157440,
			"byteOffset":80876,
			"target":34962
		},
		{
			"buffer":0,
			"byteLength":157440,
			"byteOffset":238316,
			"target":34962
		},
		{
			"buffer":0,
			"byteLength":39372,
			"byteOffset":395756,
			"target":34963
		},
		{
			"buffer":0,
			"byteLength":49464,
			"byteOffset":435128,
			"target":34962
		},
		{
			"buffer":0,
			"byteLength":49464,
			"byteOffset":484592,
			"target":34962
		},
		{
			"buffer":0,
			"byteLength":19788,
			"byteOffset":534056,
			"target":34963
		},
		{
			"buffer":0,
			"byteLength":1728,
			"byteOffset":553844,
			"target":34962
		},
		{
			"buffer":0,
			"byteLength":1728,
			"byteOffset":555572,
			"target":34962
		},
		{
			"buffer":0,
			"byteLength":432,
			"byteOffset":557300,
			"target":34963
		},
		{
			"buffer":0,
			"byteLength":384,
			"byteOffset":557732,
			"target":34962
		},
		{
			"buffer":0,
			"byteLength":384,
			"byteOffset":558116,
			"target":34962
		},
		{
			"buffer":0,
			"byteLength":96,
			"byteOffset":558500,
			"target":34963
		},
		{
			"buffer":0,
			"byteLength":612,
			"byteOffset":558596,
			"target":34962
		},
		{
			"buffer":0,
			"byteLength":612,
			"byteOffset":559208,
			"target":34962
		},
		{
			"buffer":0,
			"byteLength":294,
			"byteOffset":559820,
			"target":34963
		},
		{
			"buffer":0,
			"byteLength":2784,
			"byteOffset":560116,
			"target":34962
		},
		{
			"buffer":0,
			"byteLength":2784,
			"byteOffset":562900,
			"target":34962
		},
		{
			"buffer":0,
			"byteLength":696,
			"byteOffset":565684,
			"target":34963
		},
		{
			"buffer":0,
			"byteLength":192,
			"byteOffset":566380,
			"target":34962
		},
		{
			"buffer":0,
			"byteLength":192,
			"byteOffset":566572,
			"target":34962
		},
		{
			"buffer":0,
			"byteLength":48,
			"byteOffset":566764,
			"target":34963
		},
		{
			"buffer":0,
			"byteLength":6912,
			"byteOffset":566812,
			"target":34962
		},
		{
			"buffer":0,
			"byteLength":6912,
			"byteOffset":573724,
			"target":34962
		},
		{
			"buffer":0,
			"byteLength":1728,
			"byteOffset":580636,
			"target":34963
		},
		{
			"buffer":0,
			"byteLength":192,
			"byteOffset":582364,
			"target":34962
		},
		{
			"buffer":0,
			"byteLength":192,
			"byteOffset":582556,
			"target":34962
		},
		{
			"buffer":0,
			"byteLength":84,
			"byteOffset":582748,
			"target":34963
		},
		{
			"buffer":0,
			"byteLength":144,
			"byteOffset":582832,
			"target":34962
		},
		{
			"buffer":0,
			"byteLength":144,
			"byteOffset":582976,
			"target":34962
		},
		{
			"buffer":0,
			"byteLength":60,
			"byteOffset":583120,
			"target":34963
		}
	],
	"buffers":[
		{
			"byteLength":583180,
			"uri":"cp.bin"
		}
	]
}
