{"scene":0,"asset":{"generator":"ImageToStl.com","version":"2.0"},"scenes":[{"name":"Scene","nodes":[0]}],"nodes":[{"name":"Node0","children":[1,2,3,4,5,6,7,8,9]},{"name":"Node1","mesh":0},{"name":"Node2","mesh":1},{"name":"Node3","mesh":2},{"name":"Node4","mesh":3},{"name":"Node5","mesh":4},{"name":"Node6","mesh":5},{"name":"Node7","mesh":6},{"name":"Node8","mesh":7},{"name":"Node9","mesh":8}],"materials":[{"name":"wall","pbrMetallicRoughness":{"baseColorFactor":[1.0,0.5,0.2,1.0],"metallicFactor":1.0,"roughnessFactor":0.4},"emissiveFactor":[0.0,0.0,0.0],"doubleSided":true},{"name":"roof","pbrMetallicRoughness":{"baseColorFactor":[0.29,0.25,0.21,1.0],"metallicFactor":1.0,"roughnessFactor":0.4},"emissiveFactor":[0.0,0.0,0.0],"doubleSided":true},{"name":"roads_secondary","pbrMetallicRoughness":{"baseColorFactor":[0.0865,0.090842,0.088656,1.0],"metallicFactor":1.0,"roughnessFactor":0.4},"emissiveFactor":[0.0,0.0,0.0],"doubleSided":true},{"name":"roads_service","pbrMetallicRoughness":{"baseColorFactor":[0.0865,0.090842,0.088656,1.0],"metallicFactor":1.0,"roughnessFactor":0.4},"emissiveFactor":[0.0,0.0,0.0],"doubleSided":true},{"name":"roads_residential","pbrMetallicRoughness":{"baseColorFactor":[0.0865,0.090842,0.088656,1.0],"metallicFactor":1.0,"roughnessFactor":0.4},"emissiveFactor":[0.0,0.0,0.0],"doubleSided":true},{"name":"vegetation","pbrMetallicRoughness":{"baseColorFactor":[0.007,0.558,0.005,1.0],"metallicFactor":1.0,"roughnessFactor":0.4},"emissiveFactor":[0.0,0.0,0.0],"doubleSided":true},{"name":"roads_tertiary","pbrMetallicRoughness":{"baseColorFactor":[0.0865,0.090842,0.088656,1.0],"metallicFactor":1.0,"roughnessFactor":0.4},"emissiveFactor":[0.0,0.0,0.0],"doubleSided":true},{"name":"paths_footway","pbrMetallicRoughness":{"baseColorFactor":[0.0865,0.090842,0.088656,1.0],"metallicFactor":1.0,"roughnessFactor":0.4},"emissiveFactor":[0.0,0.0,0.0],"doubleSided":true},{"name":"water","pbrMetallicRoughness":{"baseColorFactor":[0.009,0.002,0.8,1.0],"metallicFactor":1.0,"roughnessFactor":0.4},"emissiveFactor":[0.0,0.0,0.0],"doubleSided":true},{"name":"roads_track","pbrMetallicRoughness":{"baseColorFactor":[0.564712,0.332452,0.066626,1.0],"metallicFactor":1.0,"roughnessFactor":0.4},"emissiveFactor":[0.0,0.0,0.0],"doubleSided":true}],"meshes":[{"name":"Mesh0","primitives":[{"indices":2,"material":0,"attributes":{"POSITION":0,"NORMAL":1}},{"indices":3,"material":1,"attributes":{"POSITION":0,"NORMAL":1}}]},{"name":"Mesh0","primitives":[{"indices":7,"material":2,"attributes":{"POSITION":4,"NORMAL":5,"TEXCOORD_0":6}}]},{"name":"Mesh0","primitives":[{"indices":11,"material":3,"attributes":{"POSITION":8,"NORMAL":9,"TEXCOORD_0":10}}]},{"name":"Mesh0","primitives":[{"indices":15,"material":4,"attributes":{"POSITION":12,"NORMAL":13,"TEXCOORD_0":14}}]},{"name":"Mesh0","primitives":[{"indices":18,"material":5,"attributes":{"POSITION":16,"NORMAL":17}}]},{"name":"Mesh0","primitives":[{"indices":22,"material":6,"attributes":{"POSITION":19,"NORMAL":20,"TEXCOORD_0":21}}]},{"name":"Mesh0","primitives":[{"indices":26,"material":7,"attributes":{"POSITION":23,"NORMAL":24,"TEXCOORD_0":25}}]},{"name":"Mesh0","primitives":[{"indices":29,"material":8,"attributes":{"POSITION":27,"NORMAL":28}}]},{"name":"Mesh0","primitives":[{"indices":33,"material":9,"attributes":{"POSITION":30,"NORMAL":31,"TEXCOORD_0":32}}]}],"accessors":[{"bufferView":0,"componentType":5126,"count":4304,"type":"VEC3","min":[-640.7674,-634.3249,0.0],"max":[528.01556,569.3948,20.984818]},{"bufferView":1,"componentType":5126,"count":4304,"type":"VEC3"},{"bufferView":2,"componentType":5123,"count":12912,"type":"SCALAR"},{"bufferView":3,"componentType":5123,"count":4944,"type":"SCALAR"},{"bufferView":4,"componentType":5126,"count":192,"type":"VEC3","min":[-834.88574,-731.9932,0.3],"max":[1109.9258,-463.24042,0.3]},{"bufferView":5,"componentType":5126,"count":192,"type":"VEC3"},{"bufferView":6,"componentType":5126,"count":192,"type":"VEC2"},{"bufferView":7,"componentType":5123,"count":1674,"type":"SCALAR"},{"bufferView":8,"componentType":5126,"count":1186,"type":"VEC3","min":[-709.8607,-669.4702,0.3],"max":[849.7412,577.57446,0.3]},{"bufferView":9,"componentType":5126,"count":1186,"type":"VEC3"},{"bufferView":10,"componentType":5126,"count":1186,"type":"VEC2"},{"bufferView":11,"componentType":5123,"count":9270,"type":"SCALAR"},{"bufferView":12,"componentType":5126,"count":1236,"type":"VEC3","min":[-2543.6868,-1156.1372,0.3],"max":[881.6831,2598.9768,0.3]},{"bufferView":13,"componentType":5126,"count":1236,"type":"VEC3"},{"bufferView":14,"componentType":5126,"count":1236,"type":"VEC2"},{"bufferView":15,"componentType":5123,"count":9450,"type":"SCALAR"},{"bufferView":16,"componentType":5126,"count":18,"type":"VEC3","min":[-957.0403,68.13648,0.0],"max":[1128.5923,2324.9272,0.0]},{"bufferView":17,"componentType":5126,"count":18,"type":"VEC3"},{"bufferView":18,"componentType":5123,"count":48,"type":"SCALAR"},{"bufferView":19,"componentType":5126,"count":128,"type":"VEC3","min":[-636.4536,-297.6677,0.3],"max":[907.3765,824.37213,0.3]},{"bufferView":20,"componentType":5126,"count":128,"type":"VEC3"},{"bufferView":21,"componentType":5126,"count":128,"type":"VEC2"},{"bufferView":22,"componentType":5123,"count":1062,"type":"SCALAR"},{"bufferView":23,"componentType":5126,"count":90,"type":"VEC3","min":[-220.48888,269.0806,0.3],"max":[60.122566,519.4754,0.3]},{"bufferView":24,"componentType":5126,"count":90,"type":"VEC3"},{"bufferView":25,"componentType":5126,"count":90,"type":"VEC2"},{"bufferView":26,"componentType":5123,"count":702,"type":"SCALAR"},{"bufferView":27,"componentType":5126,"count":81,"type":"VEC3","min":[-437.49396,-70.41028,0.2],"max":[-341.55502,30.96946,0.2]},{"bufferView":28,"componentType":5126,"count":81,"type":"VEC3"},{"bufferView":29,"componentType":5123,"count":237,"type":"SCALAR"},{"bufferView":30,"componentType":5126,"count":102,"type":"VEC3","min":[-974.9801,-128.82028,0.3],"max":[809.1882,1560.7767,0.3]},{"bufferView":31,"componentType":5126,"count":102,"type":"VEC3"},{"bufferView":32,"componentType":5126,"count":102,"type":"VEC2"},{"bufferView":33,"componentType":5123,"count":900,"type":"SCALAR"}],"bufferViews":[{"target":34962,"buffer":0,"byteLength":51648,"byteOffset":0},{"target":34962,"buffer":0,"byteLength":51648,"byteOffset":51648},{"target":34963,"buffer":0,"byteLength":25824,"byteOffset":103296},{"target":34963,"buffer":0,"byteLength":9888,"byteOffset":129120},{"target":34962,"buffer":0,"byteLength":2304,"byteOffset":139008},{"target":34962,"buffer":0,"byteLength":2304,"byteOffset":141312},{"target":34962,"buffer":0,"byteLength":1536,"byteOffset":143616},{"target":34963,"buffer":0,"byteLength":3348,"byteOffset":145152},{"target":34962,"buffer":0,"byteLength":14232,"byteOffset":148500},{"target":34962,"buffer":0,"byteLength":14232,"byteOffset":162732},{"target":34962,"buffer":0,"byteLength":9488,"byteOffset":176964},{"target":34963,"buffer":0,"byteLength":18540,"byteOffset":186452},{"target":34962,"buffer":0,"byteLength":14832,"byteOffset":204992},{"target":34962,"buffer":0,"byteLength":14832,"byteOffset":219824},{"target":34962,"buffer":0,"byteLength":9888,"byteOffset":234656},{"target":34963,"buffer":0,"byteLength":18900,"byteOffset":244544},{"target":34962,"buffer":0,"byteLength":216,"byteOffset":263444},{"target":34962,"buffer":0,"byteLength":216,"byteOffset":263660},{"target":34963,"buffer":0,"byteLength":96,"byteOffset":263876},{"target":34962,"buffer":0,"byteLength":1536,"byteOffset":263972},{"target":34962,"buffer":0,"byteLength":1536,"byteOffset":265508},{"target":34962,"buffer":0,"byteLength":1024,"byteOffset":267044},{"target":34963,"buffer":0,"byteLength":2124,"byteOffset":268068},{"target":34962,"buffer":0,"byteLength":1080,"byteOffset":270192},{"target":34962,"buffer":0,"byteLength":1080,"byteOffset":271272},{"target":34962,"buffer":0,"byteLength":720,"byteOffset":272352},{"target":34963,"buffer":0,"byteLength":1404,"byteOffset":273072},{"target":34962,"buffer":0,"byteLength":972,"byteOffset":274476},{"target":34962,"buffer":0,"byteLength":972,"byteOffset":275448},{"target":34963,"buffer":0,"byteLength":474,"byteOffset":276420},{"target":34962,"buffer":0,"byteLength":1224,"byteOffset":276896},{"target":34962,"buffer":0,"byteLength":1224,"byteOffset":278120},{"target":34962,"buffer":0,"byteLength":816,"byteOffset":279344},{"target":34963,"buffer":0,"byteLength":1800,"byteOffset":280160}],"buffers":[{"byteLength":281960,"uri":"data:application/octet-stream;base64,"}]}